<svg width="23" height="32" viewBox="0 0 23 32" fill="none" xmlns="http://www.w3.org/2000/svg">
<path fill-rule="evenodd" clip-rule="evenodd" d="M11.4986 0.791345C11.5543 0.316388 11.9808 -0.0230659 12.4513 0.0331522L13.7291 0.18584C14.1996 0.242058 14.5358 0.67266 14.4801 1.14762L13.6899 7.88763H22.1154C22.5891 7.88763 22.9732 8.27535 22.9732 8.75362V9.72786C22.9732 10.2061 22.5891 10.5938 22.1154 10.5938H22.0359L20.6614 30.5124C20.6046 31.335 19.9271 31.9729 19.1104 31.9729H3.88638C3.07097 31.9729 2.39409 31.337 2.33561 30.5159L0.916542 10.5938H0.884616C0.410861 10.5938 0.0268065 10.2061 0.0268065 9.72786V8.75362C0.0268065 8.27535 0.410861 7.88763 0.884615 7.88763H10.6666L11.4986 0.791345ZM3.44286 10.5938L3.76384 15.1C4.81538 15.5116 6.70921 15.8069 9.83708 14.9627L10.3493 10.5938H3.44286ZM19.5099 10.5938L19.2976 13.6718C18.1797 13.2707 16.2038 13.0256 12.9778 13.9608L13.3726 10.5938H19.5099ZM14.726 18.4419C15.0792 18.0316 15.7138 17.9819 16.1455 18.3607C16.2305 18.4353 16.3005 18.5204 16.3552 18.612C16.5234 18.8936 16.7653 19.1898 17.0908 19.2016C17.4163 19.2134 17.6973 18.9522 17.6222 18.6322C17.5191 18.1933 17.2826 17.7808 16.9192 17.4619C16.01 16.6642 14.6285 16.7399 13.8358 17.6608C13.1756 18.4276 13.1472 19.5209 13.6813 20.3259C13.8625 20.5991 14.2437 20.5698 14.4574 20.3216C14.671 20.0734 14.6205 19.6942 14.5288 19.3786C14.4356 19.0576 14.5012 18.703 14.726 18.4419ZM10.4179 24.2873C11.3062 24.2873 12.0263 23.5724 12.0263 22.6906C12.0263 21.8088 11.3062 21.094 10.4179 21.094C9.52958 21.094 8.80947 21.8088 8.80947 22.6906C8.80947 23.5724 9.52958 24.2873 10.4179 24.2873ZM6.21911 28.8337C7.0926 28.8337 7.8007 28.1189 7.8007 27.2371C7.8007 26.3553 7.0926 25.6404 6.21911 25.6404C5.34563 25.6404 4.63753 26.3553 4.63753 27.2371C4.63753 28.1189 5.34563 28.8337 6.21911 28.8337ZM18.5233 22.9612C18.5233 23.8431 17.8152 24.5579 16.9417 24.5579C16.0682 24.5579 15.3601 23.8431 15.3601 22.9612C15.3601 22.0794 16.0682 21.3646 16.9417 21.3646C17.8152 21.3646 18.5233 22.0794 18.5233 22.9612ZM12.7063 28.8337C13.5798 28.8337 14.2879 28.1189 14.2879 27.2371C14.2879 26.3553 13.5798 25.6404 12.7063 25.6404C11.8328 25.6404 11.1247 26.3553 11.1247 27.2371C11.1247 28.1189 11.8328 28.8337 12.7063 28.8337Z" fill="white"/>
<path fill-rule="evenodd" clip-rule="evenodd" d="M11.472 0.788164C11.5294 0.298364 11.9693 -0.0516972 12.4545 0.00627764L13.7323 0.158965C14.2174 0.21694 14.5642 0.660999 14.5068 1.1508L13.7201 7.86057H22.1154C22.6039 7.86057 23 8.2604 23 8.75362V9.72786C23 10.2211 22.6039 10.6209 22.1154 10.6209H22.0609L20.6881 30.5143C20.6304 31.351 19.9412 32 19.1104 32H3.88638C3.05691 32 2.36836 31.3531 2.30887 30.5179L0.891594 10.6209H0.884616C0.396056 10.6209 0 10.2211 0 9.72786V8.75362C0 8.2604 0.396056 7.86057 0.884615 7.86057H10.6428L11.472 0.788164ZM12.4482 0.0600267C11.9924 0.00556546 11.5792 0.334411 11.5252 0.794526L10.6904 7.91469H0.884615C0.425665 7.91469 0.0536131 8.29029 0.0536131 8.75362V9.72786C0.0536131 10.1912 0.425666 10.5668 0.884616 10.5668H0.94149L2.36235 30.514C2.41982 31.3209 3.08503 31.9459 3.88638 31.9459H19.1104C19.913 31.9459 20.5789 31.3189 20.6346 30.5105L22.0109 10.5668H22.1154C22.5743 10.5668 22.9464 10.1912 22.9464 9.72786V8.75362C22.9464 8.29029 22.5743 7.91469 22.1154 7.91469H13.6597L14.4535 1.14444C14.5075 0.684322 14.1817 0.267176 13.726 0.212714L12.4482 0.0600267ZM3.41406 10.5668H10.3795L9.86156 14.9841L9.844 14.9888C6.71197 15.8342 4.81215 15.5393 3.75415 15.1252L3.73832 15.1191L3.41406 10.5668ZM3.47167 10.6209L3.78936 15.0809C4.83566 15.486 6.71506 15.7743 9.8126 14.9413L10.3191 10.6209H3.47167ZM13.3488 10.5668H19.5387L19.3218 13.7093L19.2886 13.6973C18.1772 13.2985 16.2072 13.0528 12.9852 13.9869L12.9465 13.9981L13.3488 10.5668ZM13.3964 10.6209L13.0092 13.9236C16.1848 13.0095 18.1478 13.2398 19.2733 13.6345L19.4812 10.6209H13.3964ZM16.9016 17.4824C16.0032 16.6941 14.6387 16.7693 13.856 17.6785C13.2042 18.4357 13.1759 19.5155 13.7035 20.3108C13.7886 20.4389 13.92 20.4961 14.0564 20.4922C14.1933 20.4882 14.3351 20.4224 14.4372 20.3038C14.5385 20.1861 14.5783 20.0362 14.5808 19.8749C14.5834 19.7135 14.5486 19.5428 14.5031 19.3863C14.4074 19.0569 14.4747 18.6926 14.7058 18.4241C15.0689 18.0023 15.7205 17.9519 16.1631 18.3403C16.2502 18.4167 16.322 18.504 16.3782 18.5981C16.4616 18.7378 16.5626 18.8797 16.6819 18.9879C16.8012 19.0959 16.9373 19.169 17.0918 19.1746C17.2473 19.1802 17.3916 19.1205 17.4876 19.0223C17.5833 18.9244 17.6313 18.7885 17.5961 18.6385C17.4942 18.2049 17.2607 17.7974 16.9016 17.4824ZM13.8155 17.643C14.6183 16.7106 16.0167 16.6343 16.9368 17.4415C17.3045 17.7642 17.5439 18.1817 17.6482 18.626C17.6882 18.7959 17.6332 18.9505 17.5258 19.0603C17.4188 19.1697 17.2598 19.2348 17.0898 19.2287C16.9188 19.2225 16.7712 19.1415 16.6461 19.0282C16.5211 18.9149 16.417 18.7679 16.3323 18.626C16.279 18.5367 16.2108 18.4539 16.1279 18.3811C15.7071 18.0119 15.0895 18.0609 14.7462 18.4596C14.5278 18.7134 14.4637 19.0584 14.5546 19.371C14.6007 19.53 14.6371 19.7067 14.6344 19.8758C14.6317 20.0451 14.5899 20.2089 14.4776 20.3393C14.3661 20.4689 14.2104 20.5419 14.058 20.5463C13.905 20.5507 13.7553 20.486 13.659 20.3409C13.1186 19.5264 13.147 18.4196 13.8155 17.643ZM10.4179 21.121C9.54395 21.121 8.83628 21.8242 8.83628 22.6906C8.83628 23.5571 9.54395 24.2602 10.4179 24.2602C11.2918 24.2602 11.9994 23.5571 11.9994 22.6906C11.9994 21.8242 11.2918 21.121 10.4179 21.121ZM8.78267 22.6906C8.78267 21.7934 9.5152 21.0669 10.4179 21.0669C11.3205 21.0669 12.0531 21.7934 12.0531 22.6906C12.0531 23.5878 11.3205 24.3144 10.4179 24.3144C9.5152 24.3144 8.78267 23.5878 8.78267 22.6906ZM15.3333 22.9612C15.3333 22.0645 16.0534 21.3375 16.9417 21.3375C17.83 21.3375 18.5501 22.0645 18.5501 22.9612C18.5501 23.858 17.83 24.585 16.9417 24.585C16.0534 24.585 15.3333 23.858 15.3333 22.9612ZM16.9417 21.3916C16.083 21.3916 15.3869 22.0944 15.3869 22.9612C15.3869 23.8281 16.083 24.5309 16.9417 24.5309C17.8004 24.5309 18.4965 23.8281 18.4965 22.9612C18.4965 22.0944 17.8004 21.3916 16.9417 21.3916ZM6.21911 25.6675C5.36043 25.6675 4.66433 26.3702 4.66433 27.2371C4.66433 28.1039 5.36043 28.8067 6.21911 28.8067C7.07779 28.8067 7.77389 28.1039 7.77389 27.2371C7.77389 26.3702 7.07779 25.6675 6.21911 25.6675ZM4.61072 27.2371C4.61072 26.3403 5.33082 25.6133 6.21911 25.6133C7.1074 25.6133 7.82751 26.3403 7.82751 27.2371C7.82751 28.1338 7.1074 28.8608 6.21911 28.8608C5.33082 28.8608 4.61072 28.1338 4.61072 27.2371ZM12.7063 25.6675C11.8476 25.6675 11.1515 26.3702 11.1515 27.2371C11.1515 28.1039 11.8476 28.8067 12.7063 28.8067C13.565 28.8067 14.2611 28.1039 14.2611 27.2371C14.2611 26.3702 13.565 25.6675 12.7063 25.6675ZM11.0979 27.2371C11.0979 26.3403 11.818 25.6133 12.7063 25.6133C13.5946 25.6133 14.3147 26.3403 14.3147 27.2371C14.3147 28.1338 13.5946 28.8608 12.7063 28.8608C11.818 28.8608 11.0979 28.1338 11.0979 27.2371Z" fill="white"/>
</svg>
